# xmcd
#
# Track frame offsets:
#  150
#  21975
#  43337
#  67612
#  89820
#  104002
#  127875
#  143925
#  182025
#  200410
#  221912
#
# Disc length: 3272 seconds
#
# Revision: 4
# Processed by: cddbd v1.5.1PL2 Copyright (c) Steve Scherf et al.
# Submitted via: Collectorz.com_Music_Collector 6.9
#
DISCID=aa0cc60b
DTITLE=Bugs Henderson - Years In The Jungle
DYEAR=1993
DGENRE=Blues - Blues-Rock
TTITLE0=She Feels Good
TTITLE1=Honey Mama
TTITLE2=Cowboy
TTITLE3=Anthem For The Blues
TTITLE4=Big D Shuffle
TTITLE5=Shocked, Stunned, And Bewildered
TTITLE6=Sweet Marie
TTITLE7=Blues In Reverse
TTITLE8=Permanent Vacation
TTITLE9=Video S.O.B.
TTITLE10=No Thanks
EXTD=
EXTT0=
EXTT1=
EXTT2=
EXTT3=
EXTT4=
EXTT5=
EXTT6=
EXTT7=
EXTT8=
EXTT9=
EXTT10=
PLAYORDER=
